<?xml version="1.0" encoding="UTF-8"?>
<svg id="Layer_1" data-name="Layer 1" xmlns="http://www.w3.org/2000/svg" viewBox="0 0 445.9 1044.38">
  <defs>
    <style>
      .cls-1 {
        stroke: #d2a580;
      }

      .cls-1, .cls-2 {
        fill: none;
        stroke-linecap: round;
        stroke-miterlimit: 10;
        stroke-width: 18px;
      }

      .cls-2 {
        stroke: beige;
      }
    </style>
  </defs>
  <path class="cls-1" d="M115.31,56.66c76.84,15.94,157.55,59.43,160.46,141.84-.07,7.37-1.62,14.72-5.55,20.98-5.96,9.65-16.54,15.19-27.36,17.21-4.55.89-9.14,1.25-13.79,1.45-45.81,1.39-107.42-2.87-153.73,10.06-43.21,11.24-82.56,45.65-59.55,91.72,41.43,87.31,151.19,88.24,241.09,89.94,10.13.35,21.62,1.58,32.06,3.98,27.62,6.6,58.57,20.48,68.07,45.75,7.92,22.53-14.47,39.88-40.99,47.31-11.06,3.53-23.08,5.31-33.95,7.39-14.38,2.49-39.63,11.37-40.07,26.65.67,14.74,21.07,22.14,33.12,27.23,37.76,14.89,78.86,29.6,111.25,54.07,19.31,14.58,36.61,33.39,45.22,56.4,65.17,193.39-493.82-32.38-319.7,279.2"/>
  <path class="cls-2" d="M196.43,9c-52.31,55.43-123.98,127.44-38.78,172.2,18.1,10.2,39.45,18.25,56.96,29.8,26.25,16.68,35.99,41.95,9.5,61.83-17.75,14.06-50.41,23.74-64.06,33.47-1.96,1.32-3.88,3.09-5.21,4.8-6.92,9.99,7.17,14.54,15.64,17.3,6.42,2.02,13.89,3.98,20.71,6.28,10.94,3.77,27.93,10.21,22.8,23.54-2.74,6.79-10.51,12.4-17.66,16.35-43.12,22.26-104.04,17.81-149.73,40.51-11.48,5.87-29.55,16.99-25.35,31.27,6.78,17.51,46.02,22.15,64.56,25.74,22.52,3.68,45.17,6.72,67.56,10.63,35.86,6.22,67.55,13.85,102.26,20.93,34.77,7.47,69.95,14.26,103.51,26.06,17.33,6.22,33.43,13.45,47.97,22.97,82.77,56.7-55.87,66.8-139.09,71.02-16.22.72-32.98,1.05-48.77,3.48-7.49,1.17-14.79,2.78-21.87,5.22-17.34,5.73-35.8,20.02-20.31,29.5,15.76,6.98,34.81,4.08,56.06,3.48,20.23-.93,39.86-2.15,57.78,2.56,7.95,1.95,16.42,7.15,14.68,12.83-2.98,8.81-16.99,13.33-27.29,15.91-12.36,2.98-26.16,4.11-39.12,4.63-44.21,1.74-89.39.99-133.45,7.76-13.42,2.1-27.16,5.1-39.72,9.93-20.21,7.39-43.88,24.11-36.36,47.69,8.06,23.93,36.46,33.97,60.47,39.61,96.97,23.63,360,26.51,303.4,111.35-4.96,6.71-12.01,13.17-20.63,18.94-14.15,9.52-30.41,16.02-47.78,21.96-20.73,7.29-38.78,11.01-54.2,22.43-20.97,16.09-9.05,36.62,1.53,54.39"/>
</svg>